<svg width="520" height="360" viewBox="0 0 520 360" fill="none" xmlns="http://www.w3.org/2000/svg">
  <rect width="520" height="360" rx="28" fill="#F7F6F2"/>
  <rect x="32" y="32" width="456" height="56" rx="14" fill="#FFFFFF" stroke="#E7E3D9"/>
  <rect x="52" y="50" width="140" height="12" rx="6" fill="#D1D1D1"/>
  <rect x="32" y="112" width="220" height="96" rx="18" fill="#FFFFFF" stroke="#E7E3D9"/>
  <rect x="52" y="132" width="140" height="14" rx="7" fill="#F0E4CC"/>
  <rect x="52" y="156" width="168" height="10" rx="5" fill="#D1D1D1"/>
  <rect x="52" y="174" width="120" height="10" rx="5" fill="#D1D1D1"/>
  <rect x="268" y="112" width="220" height="96" rx="18" fill="#FFFFFF" stroke="#E7E3D9"/>
  <rect x="288" y="132" width="160" height="14" rx="7" fill="#F6D7A2"/>
  <rect x="288" y="156" width="120" height="10" rx="5" fill="#D1D1D1"/>
  <rect x="288" y="174" width="96" height="10" rx="5" fill="#D1D1D1"/>
  <rect x="32" y="232" width="456" height="96" rx="18" fill="#FFFFFF" stroke="#E7E3D9"/>
  <rect x="52" y="252" width="200" height="12" rx="6" fill="#D1D1D1"/>
  <rect x="52" y="276" width="360" height="10" rx="5" fill="#E7E3D9"/>
  <rect x="52" y="294" width="300" height="10" rx="5" fill="#E7E3D9"/>
</svg>
